<mxfile modified="2020-01-18T01:16:57.871Z" host="www.draw.io" agent="Mozilla/5.0 (Windows NT 10.0; WOW64) AppleWebKit/537.36 (KHTML, like Gecko) Chrome/63.0.3239.26 Safari/537.36 Core/1.63.6788.400 QQBrowser/10.3.2843.400" etag="axKoVUNFSvtVL2U6xx3w" version="12.5.5" type="github">
  <diagram id="ShgSd0h_c0e8bez5AuMd" name="第 1 页">
    <mxGraphModel dx="1323" dy="943" grid="1" gridSize="10" guides="1" tooltips="1" connect="1" arrows="1" fold="1" page="1" pageScale="1" pageWidth="1500" pageHeight="3000" math="0" shadow="0">
      <root>
        <mxCell id="0"/>
        <mxCell id="1" parent="0"/>
        <mxCell id="p9W-oRDzGupdlDEbVHTO-9" value="用户" style="swimlane;childLayout=stackLayout;horizontal=1;startSize=30;horizontalStack=0;fillColor=#008cff;fontColor=#FFFFFF;rounded=1;fontSize=14;fontStyle=0;strokeWidth=2;resizeParent=0;resizeLast=1;shadow=0;dashed=0;align=center;" parent="1" vertex="1" collapsed="1">
          <mxGeometry x="1090" y="400" width="70" height="30" as="geometry">
            <mxRectangle x="1090" y="400" width="160" height="120" as="alternateBounds"/>
          </mxGeometry>
        </mxCell>
        <mxCell id="p9W-oRDzGupdlDEbVHTO-11" value="角色" style="swimlane;childLayout=stackLayout;horizontal=1;startSize=30;horizontalStack=0;fillColor=#008cff;fontColor=#FFFFFF;rounded=1;fontSize=14;fontStyle=0;strokeWidth=2;resizeParent=0;resizeLast=1;shadow=0;dashed=0;align=center;" parent="1" vertex="1" collapsed="1">
          <mxGeometry x="1295" y="250" width="70" height="30" as="geometry">
            <mxRectangle x="320" y="270" width="160" height="120" as="alternateBounds"/>
          </mxGeometry>
        </mxCell>
        <mxCell id="p9W-oRDzGupdlDEbVHTO-12" value="权限" style="swimlane;childLayout=stackLayout;horizontal=1;startSize=30;horizontalStack=0;fillColor=#008cff;fontColor=#FFFFFF;rounded=1;fontSize=14;fontStyle=0;strokeWidth=2;resizeParent=0;resizeLast=1;shadow=0;dashed=0;align=center;" parent="1" vertex="1" collapsed="1">
          <mxGeometry x="880" y="250" width="70" height="30" as="geometry">
            <mxRectangle x="880" y="250" width="160" height="120" as="alternateBounds"/>
          </mxGeometry>
        </mxCell>
        <mxCell id="p9W-oRDzGupdlDEbVHTO-13" value="组" style="swimlane;childLayout=stackLayout;horizontal=1;startSize=30;horizontalStack=0;fillColor=#008cff;fontColor=#FFFFFF;rounded=1;fontSize=14;fontStyle=0;strokeWidth=2;resizeParent=0;resizeLast=1;shadow=0;dashed=0;align=center;" parent="1" vertex="1" collapsed="1">
          <mxGeometry x="1090" y="590" width="70" height="30" as="geometry">
            <mxRectangle x="320" y="270" width="160" height="120" as="alternateBounds"/>
          </mxGeometry>
        </mxCell>
        <mxCell id="p9W-oRDzGupdlDEbVHTO-22" value="" style="fontSize=12;html=1;endArrow=ERmany;startArrow=ERmany;exitX=1;exitY=0.5;exitDx=0;exitDy=0;entryX=0;entryY=0.5;entryDx=0;entryDy=0;" parent="1" source="p9W-oRDzGupdlDEbVHTO-12" target="p9W-oRDzGupdlDEbVHTO-9" edge="1">
          <mxGeometry width="100" height="100" relative="1" as="geometry">
            <mxPoint x="870" y="400" as="sourcePoint"/>
            <mxPoint x="1050" y="720" as="targetPoint"/>
          </mxGeometry>
        </mxCell>
        <mxCell id="p9W-oRDzGupdlDEbVHTO-23" value="" style="fontSize=12;html=1;endArrow=ERmany;startArrow=ERmany;entryX=0;entryY=0.5;entryDx=0;entryDy=0;exitX=1;exitY=0.5;exitDx=0;exitDy=0;" parent="1" source="p9W-oRDzGupdlDEbVHTO-9" target="p9W-oRDzGupdlDEbVHTO-11" edge="1">
          <mxGeometry width="100" height="100" relative="1" as="geometry">
            <mxPoint x="880" y="750" as="sourcePoint"/>
            <mxPoint x="980" y="650" as="targetPoint"/>
          </mxGeometry>
        </mxCell>
        <mxCell id="p9W-oRDzGupdlDEbVHTO-25" value="" style="edgeStyle=orthogonalEdgeStyle;fontSize=12;html=1;endArrow=ERoneToMany;entryX=0.5;entryY=1;entryDx=0;entryDy=0;exitX=0.5;exitY=0;exitDx=0;exitDy=0;" parent="1" source="p9W-oRDzGupdlDEbVHTO-13" target="p9W-oRDzGupdlDEbVHTO-9" edge="1">
          <mxGeometry width="100" height="100" relative="1" as="geometry">
            <mxPoint x="880" y="740" as="sourcePoint"/>
            <mxPoint x="1020" y="450" as="targetPoint"/>
          </mxGeometry>
        </mxCell>
        <mxCell id="p9W-oRDzGupdlDEbVHTO-34" style="edgeStyle=none;rounded=0;orthogonalLoop=1;jettySize=auto;html=1;exitX=0;exitY=0;exitDx=0;exitDy=0;entryX=1;entryY=1;entryDx=0;entryDy=0;" parent="1" source="p9W-oRDzGupdlDEbVHTO-26" target="p9W-oRDzGupdlDEbVHTO-32" edge="1">
          <mxGeometry relative="1" as="geometry"/>
        </mxCell>
        <mxCell id="p9W-oRDzGupdlDEbVHTO-36" style="edgeStyle=none;rounded=0;orthogonalLoop=1;jettySize=auto;html=1;exitX=1;exitY=0;exitDx=0;exitDy=0;entryX=0;entryY=1;entryDx=0;entryDy=0;" parent="1" source="p9W-oRDzGupdlDEbVHTO-26" target="p9W-oRDzGupdlDEbVHTO-31" edge="1">
          <mxGeometry relative="1" as="geometry"/>
        </mxCell>
        <mxCell id="p9W-oRDzGupdlDEbVHTO-41" style="edgeStyle=none;rounded=0;orthogonalLoop=1;jettySize=auto;html=1;exitX=0.5;exitY=1;exitDx=0;exitDy=0;entryX=0.5;entryY=0;entryDx=0;entryDy=0;" parent="1" source="p9W-oRDzGupdlDEbVHTO-26" target="p9W-oRDzGupdlDEbVHTO-30" edge="1">
          <mxGeometry relative="1" as="geometry"/>
        </mxCell>
        <mxCell id="p9W-oRDzGupdlDEbVHTO-26" value="&lt;font style=&quot;font-size: 24px&quot;&gt;用户&lt;/font&gt;" style="ellipse;whiteSpace=wrap;html=1;" parent="1" vertex="1">
          <mxGeometry x="220" y="375" width="120" height="80" as="geometry"/>
        </mxCell>
        <mxCell id="p9W-oRDzGupdlDEbVHTO-42" style="edgeStyle=none;rounded=0;orthogonalLoop=1;jettySize=auto;html=1;exitX=0.5;exitY=0;exitDx=0;exitDy=0;entryX=0.5;entryY=1;entryDx=0;entryDy=0;" parent="1" source="p9W-oRDzGupdlDEbVHTO-30" target="p9W-oRDzGupdlDEbVHTO-26" edge="1">
          <mxGeometry relative="1" as="geometry"/>
        </mxCell>
        <mxCell id="p9W-oRDzGupdlDEbVHTO-30" value="&lt;font style=&quot;font-size: 24px&quot;&gt;组&lt;/font&gt;" style="ellipse;whiteSpace=wrap;html=1;" parent="1" vertex="1">
          <mxGeometry x="220" y="545" width="120" height="80" as="geometry"/>
        </mxCell>
        <mxCell id="p9W-oRDzGupdlDEbVHTO-37" style="edgeStyle=none;rounded=0;orthogonalLoop=1;jettySize=auto;html=1;exitX=0;exitY=1;exitDx=0;exitDy=0;entryX=1;entryY=0;entryDx=0;entryDy=0;" parent="1" source="p9W-oRDzGupdlDEbVHTO-31" target="p9W-oRDzGupdlDEbVHTO-26" edge="1">
          <mxGeometry relative="1" as="geometry"/>
        </mxCell>
        <mxCell id="p9W-oRDzGupdlDEbVHTO-46" style="edgeStyle=none;rounded=0;orthogonalLoop=1;jettySize=auto;html=1;exitX=0;exitY=0.5;exitDx=0;exitDy=0;entryX=1;entryY=0.5;entryDx=0;entryDy=0;" parent="1" source="p9W-oRDzGupdlDEbVHTO-31" target="p9W-oRDzGupdlDEbVHTO-32" edge="1">
          <mxGeometry relative="1" as="geometry"/>
        </mxCell>
        <mxCell id="p9W-oRDzGupdlDEbVHTO-31" value="&lt;font style=&quot;font-size: 24px&quot;&gt;角色&lt;/font&gt;" style="ellipse;whiteSpace=wrap;html=1;" parent="1" vertex="1">
          <mxGeometry x="400" y="235" width="120" height="80" as="geometry"/>
        </mxCell>
        <mxCell id="p9W-oRDzGupdlDEbVHTO-33" style="edgeStyle=none;rounded=0;orthogonalLoop=1;jettySize=auto;html=1;exitX=1;exitY=1;exitDx=0;exitDy=0;entryX=0;entryY=0;entryDx=0;entryDy=0;" parent="1" source="p9W-oRDzGupdlDEbVHTO-32" target="p9W-oRDzGupdlDEbVHTO-26" edge="1">
          <mxGeometry relative="1" as="geometry"/>
        </mxCell>
        <mxCell id="p9W-oRDzGupdlDEbVHTO-45" style="edgeStyle=none;rounded=0;orthogonalLoop=1;jettySize=auto;html=1;entryX=0;entryY=0.5;entryDx=0;entryDy=0;" parent="1" source="p9W-oRDzGupdlDEbVHTO-32" target="p9W-oRDzGupdlDEbVHTO-31" edge="1">
          <mxGeometry relative="1" as="geometry"/>
        </mxCell>
        <mxCell id="p9W-oRDzGupdlDEbVHTO-32" value="&lt;font style=&quot;font-size: 24px&quot;&gt;权限&lt;/font&gt;" style="ellipse;whiteSpace=wrap;html=1;" parent="1" vertex="1">
          <mxGeometry x="50" y="235" width="120" height="80" as="geometry"/>
        </mxCell>
        <mxCell id="p9W-oRDzGupdlDEbVHTO-35" value="&lt;font style=&quot;font-size: 24px&quot;&gt;*&lt;/font&gt;" style="text;html=1;strokeColor=none;fillColor=none;align=center;verticalAlign=middle;whiteSpace=wrap;rounded=0;" parent="1" vertex="1">
          <mxGeometry x="130" y="315" width="40" height="20" as="geometry"/>
        </mxCell>
        <mxCell id="p9W-oRDzGupdlDEbVHTO-38" value="&lt;font style=&quot;font-size: 24px&quot;&gt;*&lt;/font&gt;" style="text;html=1;strokeColor=none;fillColor=none;align=center;verticalAlign=middle;whiteSpace=wrap;rounded=0;" parent="1" vertex="1">
          <mxGeometry x="199" y="381" width="40" height="20" as="geometry"/>
        </mxCell>
        <mxCell id="p9W-oRDzGupdlDEbVHTO-39" value="&lt;font style=&quot;font-size: 24px&quot;&gt;*&lt;/font&gt;" style="text;html=1;strokeColor=none;fillColor=none;align=center;verticalAlign=middle;whiteSpace=wrap;rounded=0;" parent="1" vertex="1">
          <mxGeometry x="400" y="314" width="40" height="20" as="geometry"/>
        </mxCell>
        <mxCell id="p9W-oRDzGupdlDEbVHTO-40" value="&lt;font style=&quot;font-size: 24px&quot;&gt;*&lt;/font&gt;" style="text;html=1;strokeColor=none;fillColor=none;align=center;verticalAlign=middle;whiteSpace=wrap;rounded=0;" parent="1" vertex="1">
          <mxGeometry x="320" y="381" width="40" height="20" as="geometry"/>
        </mxCell>
        <mxCell id="p9W-oRDzGupdlDEbVHTO-43" value="&lt;font style=&quot;font-size: 24px&quot;&gt;*&lt;/font&gt;" style="text;html=1;strokeColor=none;fillColor=none;align=center;verticalAlign=middle;whiteSpace=wrap;rounded=0;" parent="1" vertex="1">
          <mxGeometry x="272" y="461" width="40" height="20" as="geometry"/>
        </mxCell>
        <mxCell id="p9W-oRDzGupdlDEbVHTO-44" value="&lt;font style=&quot;font-size: 14px&quot;&gt;1&lt;/font&gt;" style="text;html=1;strokeColor=none;fillColor=none;align=center;verticalAlign=middle;whiteSpace=wrap;rounded=0;" parent="1" vertex="1">
          <mxGeometry x="272" y="521" width="38" height="20" as="geometry"/>
        </mxCell>
        <mxCell id="p9W-oRDzGupdlDEbVHTO-47" value="&lt;font style=&quot;font-size: 24px&quot;&gt;*&lt;/font&gt;" style="text;html=1;strokeColor=none;fillColor=none;align=center;verticalAlign=middle;whiteSpace=wrap;rounded=0;" parent="1" vertex="1">
          <mxGeometry x="160" y="258" width="40" height="20" as="geometry"/>
        </mxCell>
        <mxCell id="p9W-oRDzGupdlDEbVHTO-50" value="&lt;font style=&quot;font-size: 24px&quot;&gt;*&lt;/font&gt;" style="text;html=1;strokeColor=none;fillColor=none;align=center;verticalAlign=middle;whiteSpace=wrap;rounded=0;" parent="1" vertex="1">
          <mxGeometry x="370" y="259" width="40" height="20" as="geometry"/>
        </mxCell>
        <mxCell id="xwQmwALtmVTblda4ovLy-28" value="UserInfo" style="swimlane;fontStyle=0;childLayout=stackLayout;horizontal=1;startSize=26;fillColor=#e0e0e0;horizontalStack=0;resizeParent=1;resizeParentMax=0;resizeLast=0;collapsible=1;marginBottom=0;swimlaneFillColor=#ffffff;align=center;fontSize=14;" parent="1" vertex="1">
          <mxGeometry x="635" y="1513" width="160" height="52" as="geometry"/>
        </mxCell>
        <mxCell id="xwQmwALtmVTblda4ovLy-32" value="GroupInfo" style="swimlane;fontStyle=0;childLayout=stackLayout;horizontal=1;startSize=26;fillColor=#e0e0e0;horizontalStack=0;resizeParent=1;resizeParentMax=0;resizeLast=0;collapsible=1;marginBottom=0;swimlaneFillColor=#ffffff;align=center;fontSize=14;" parent="1" vertex="1">
          <mxGeometry x="635" y="1721.5" width="160" height="52" as="geometry"/>
        </mxCell>
        <mxCell id="xwQmwALtmVTblda4ovLy-33" value="ActionInfo" style="swimlane;fontStyle=0;childLayout=stackLayout;horizontal=1;startSize=26;fillColor=#e0e0e0;horizontalStack=0;resizeParent=1;resizeParentMax=0;resizeLast=0;collapsible=1;marginBottom=0;swimlaneFillColor=#ffffff;align=center;fontSize=14;" parent="1" vertex="1">
          <mxGeometry x="210" y="1083" width="160" height="52" as="geometry"/>
        </mxCell>
        <mxCell id="xwQmwALtmVTblda4ovLy-34" value="" style="fontSize=12;html=1;endArrow=ERoneToMany;entryX=0.5;entryY=1;entryDx=0;entryDy=0;exitX=0.5;exitY=0;exitDx=0;exitDy=0;" parent="1" source="xwQmwALtmVTblda4ovLy-32" target="xwQmwALtmVTblda4ovLy-28" edge="1">
          <mxGeometry width="100" height="100" relative="1" as="geometry">
            <mxPoint x="43" y="1899.5" as="sourcePoint"/>
            <mxPoint x="143" y="1799.5" as="targetPoint"/>
          </mxGeometry>
        </mxCell>
        <mxCell id="xwQmwALtmVTblda4ovLy-39" value="RoleInfo" style="swimlane;fontStyle=0;childLayout=stackLayout;horizontal=1;startSize=26;fillColor=#e0e0e0;horizontalStack=0;resizeParent=1;resizeParentMax=0;resizeLast=0;collapsible=1;marginBottom=0;swimlaneFillColor=#ffffff;align=center;fontSize=14;" parent="1" vertex="1">
          <mxGeometry x="1045" y="1083" width="160" height="52" as="geometry"/>
        </mxCell>
        <mxCell id="xwQmwALtmVTblda4ovLy-42" value="R_UserInfo_RoleInfo" style="swimlane;fontStyle=0;childLayout=stackLayout;horizontal=1;startSize=26;fillColor=#e0e0e0;horizontalStack=0;resizeParent=1;resizeParentMax=0;resizeLast=0;collapsible=1;marginBottom=0;swimlaneFillColor=#ffffff;align=center;fontSize=14;" parent="1" vertex="1">
          <mxGeometry x="885" y="1280" width="160" height="52" as="geometry"/>
        </mxCell>
        <mxCell id="xwQmwALtmVTblda4ovLy-43" value="" style="fontSize=12;html=1;endArrow=ERoneToMany;entryX=0.5;entryY=1;entryDx=0;entryDy=0;exitX=0.569;exitY=-0.005;exitDx=0;exitDy=0;exitPerimeter=0;" parent="1" source="xwQmwALtmVTblda4ovLy-42" target="xwQmwALtmVTblda4ovLy-39" edge="1">
          <mxGeometry width="100" height="100" relative="1" as="geometry">
            <mxPoint x="929.5" y="1513" as="sourcePoint"/>
            <mxPoint x="929.5" y="1356.5" as="targetPoint"/>
          </mxGeometry>
        </mxCell>
        <mxCell id="xwQmwALtmVTblda4ovLy-44" value="" style="fontSize=12;html=1;endArrow=ERoneToMany;entryX=0.75;entryY=0;entryDx=0;entryDy=0;exitX=0.5;exitY=1;exitDx=0;exitDy=0;" parent="1" source="xwQmwALtmVTblda4ovLy-42" target="xwQmwALtmVTblda4ovLy-28" edge="1">
          <mxGeometry width="100" height="100" relative="1" as="geometry">
            <mxPoint x="951.04" y="1289.7399999999998" as="sourcePoint"/>
            <mxPoint x="1135" y="1145" as="targetPoint"/>
          </mxGeometry>
        </mxCell>
        <mxCell id="xwQmwALtmVTblda4ovLy-45" value="R_UserInfo_ActionInfo" style="swimlane;fontStyle=0;childLayout=stackLayout;horizontal=1;startSize=26;fillColor=#e0e0e0;horizontalStack=0;resizeParent=1;resizeParentMax=0;resizeLast=0;collapsible=1;marginBottom=0;swimlaneFillColor=#ffffff;align=center;fontSize=14;" parent="1" vertex="1">
          <mxGeometry x="370" y="1280" width="170" height="52" as="geometry"/>
        </mxCell>
        <mxCell id="xwQmwALtmVTblda4ovLy-46" value="" style="fontSize=12;html=1;endArrow=ERoneToMany;entryX=0.25;entryY=0;entryDx=0;entryDy=0;exitX=0.5;exitY=1;exitDx=0;exitDy=0;" parent="1" source="xwQmwALtmVTblda4ovLy-45" target="xwQmwALtmVTblda4ovLy-28" edge="1">
          <mxGeometry width="100" height="100" relative="1" as="geometry">
            <mxPoint x="940" y="1342" as="sourcePoint"/>
            <mxPoint x="790" y="1523" as="targetPoint"/>
          </mxGeometry>
        </mxCell>
        <mxCell id="xwQmwALtmVTblda4ovLy-47" value="" style="fontSize=12;html=1;endArrow=ERoneToMany;entryX=0.5;entryY=1;entryDx=0;entryDy=0;exitX=0.5;exitY=0;exitDx=0;exitDy=0;" parent="1" source="xwQmwALtmVTblda4ovLy-45" target="xwQmwALtmVTblda4ovLy-33" edge="1">
          <mxGeometry width="100" height="100" relative="1" as="geometry">
            <mxPoint x="951.04" y="1289.7399999999998" as="sourcePoint"/>
            <mxPoint x="1135" y="1145" as="targetPoint"/>
          </mxGeometry>
        </mxCell>
        <mxCell id="xwQmwALtmVTblda4ovLy-48" value="R_ActionInfo_RoleInfo" style="swimlane;fontStyle=0;childLayout=stackLayout;horizontal=1;startSize=26;fillColor=#e0e0e0;horizontalStack=0;resizeParent=1;resizeParentMax=0;resizeLast=0;collapsible=1;marginBottom=0;swimlaneFillColor=#ffffff;align=center;fontSize=14;" parent="1" vertex="1">
          <mxGeometry x="630" y="1083" width="170" height="52" as="geometry"/>
        </mxCell>
        <mxCell id="xwQmwALtmVTblda4ovLy-49" value="" style="fontSize=12;html=1;endArrow=ERoneToMany;entryX=1;entryY=0.5;entryDx=0;entryDy=0;exitX=0;exitY=0.5;exitDx=0;exitDy=0;" parent="1" source="xwQmwALtmVTblda4ovLy-48" target="xwQmwALtmVTblda4ovLy-33" edge="1">
          <mxGeometry width="100" height="100" relative="1" as="geometry">
            <mxPoint x="475" y="1290" as="sourcePoint"/>
            <mxPoint x="300" y="1145" as="targetPoint"/>
          </mxGeometry>
        </mxCell>
        <mxCell id="xwQmwALtmVTblda4ovLy-50" value="" style="fontSize=12;html=1;endArrow=ERoneToMany;entryX=0;entryY=0.5;entryDx=0;entryDy=0;exitX=1;exitY=0.5;exitDx=0;exitDy=0;" parent="1" source="xwQmwALtmVTblda4ovLy-48" target="xwQmwALtmVTblda4ovLy-39" edge="1">
          <mxGeometry width="100" height="100" relative="1" as="geometry">
            <mxPoint x="640" y="1119" as="sourcePoint"/>
            <mxPoint x="380" y="1119" as="targetPoint"/>
          </mxGeometry>
        </mxCell>
        <mxCell id="xwQmwALtmVTblda4ovLy-52" value="UserInfoExt" style="swimlane;fontStyle=0;childLayout=stackLayout;horizontal=1;startSize=26;fillColor=#e0e0e0;horizontalStack=0;resizeParent=1;resizeParentMax=0;resizeLast=0;collapsible=1;marginBottom=0;swimlaneFillColor=#ffffff;align=center;fontSize=14;" parent="1" vertex="1">
          <mxGeometry x="210" y="1510" width="160" height="55" as="geometry"/>
        </mxCell>
        <mxCell id="xwQmwALtmVTblda4ovLy-53" value="" style="edgeStyle=entityRelationEdgeStyle;fontSize=12;html=1;endArrow=ERmandOne;startArrow=ERmandOne;entryX=0;entryY=0.5;entryDx=0;entryDy=0;exitX=1;exitY=0.5;exitDx=0;exitDy=0;" parent="1" source="xwQmwALtmVTblda4ovLy-52" target="xwQmwALtmVTblda4ovLy-28" edge="1">
          <mxGeometry width="100" height="100" relative="1" as="geometry">
            <mxPoint x="130" y="1890" as="sourcePoint"/>
            <mxPoint x="230" y="1790" as="targetPoint"/>
          </mxGeometry>
        </mxCell>
        <mxCell id="xwQmwALtmVTblda4ovLy-54" value="&lt;font style=&quot;font-size: 24px&quot;&gt;用户权限对象关系&lt;/font&gt;" style="text;html=1;strokeColor=#d6b656;fillColor=#fff2cc;align=center;verticalAlign=middle;whiteSpace=wrap;rounded=0;" parent="1" vertex="1">
          <mxGeometry x="181" y="120" width="198" height="50" as="geometry"/>
        </mxCell>
        <mxCell id="xwQmwALtmVTblda4ovLy-56" value="&lt;font style=&quot;font-size: 24px&quot;&gt;用户权限表结构关系&lt;/font&gt;" style="text;html=1;strokeColor=#d6b656;fillColor=#fff2cc;align=center;verticalAlign=middle;whiteSpace=wrap;rounded=0;" parent="1" vertex="1">
          <mxGeometry x="573.5" y="955" width="283" height="50" as="geometry"/>
        </mxCell>
        <mxCell id="xwQmwALtmVTblda4ovLy-59" value="&lt;font style=&quot;font-size: 24px&quot;&gt;试剂条码管理表结构关系&lt;/font&gt;" style="text;html=1;strokeColor=#d6b656;fillColor=#fff2cc;align=center;verticalAlign=middle;whiteSpace=wrap;rounded=0;" parent="1" vertex="1">
          <mxGeometry x="573.5" y="1980" width="283" height="50" as="geometry"/>
        </mxCell>
        <mxCell id="xwQmwALtmVTblda4ovLy-60" value="OpenConfigInfo" style="swimlane;fontStyle=0;childLayout=stackLayout;horizontal=1;startSize=26;fillColor=#e0e0e0;horizontalStack=0;resizeParent=1;resizeParentMax=0;resizeLast=0;collapsible=1;marginBottom=0;swimlaneFillColor=#ffffff;align=center;fontSize=14;" parent="1" vertex="1">
          <mxGeometry x="475" y="2134" width="160" height="52" as="geometry"/>
        </mxCell>
        <mxCell id="xwQmwALtmVTblda4ovLy-61" value="BarcodeRecordInfo" style="swimlane;fontStyle=0;childLayout=stackLayout;horizontal=1;startSize=26;fillColor=#e0e0e0;horizontalStack=0;resizeParent=1;resizeParentMax=0;resizeLast=0;collapsible=1;marginBottom=0;swimlaneFillColor=#ffffff;align=center;fontSize=14;" parent="1" vertex="1">
          <mxGeometry x="795" y="2134" width="160" height="52" as="geometry"/>
        </mxCell>
        <mxCell id="xwQmwALtmVTblda4ovLy-62" value="&lt;font style=&quot;font-size: 24px&quot;&gt;序列号管理表结构关系&lt;/font&gt;" style="text;html=1;strokeColor=#d6b656;fillColor=#fff2cc;align=center;verticalAlign=middle;whiteSpace=wrap;rounded=0;" parent="1" vertex="1">
          <mxGeometry x="573.5" y="2450" width="283" height="50" as="geometry"/>
        </mxCell>
        <mxCell id="xwQmwALtmVTblda4ovLy-63" value="ProductPartNumInfo" style="swimlane;fontStyle=0;childLayout=stackLayout;horizontal=1;startSize=26;fillColor=#e0e0e0;horizontalStack=0;resizeParent=1;resizeParentMax=0;resizeLast=0;collapsible=1;marginBottom=0;swimlaneFillColor=#ffffff;align=center;fontSize=14;" parent="1" vertex="1">
          <mxGeometry x="475" y="2620" width="160" height="52" as="geometry"/>
        </mxCell>
        <mxCell id="xwQmwALtmVTblda4ovLy-64" value="SnRecordInfo" style="swimlane;fontStyle=0;childLayout=stackLayout;horizontal=1;startSize=26;fillColor=#e0e0e0;horizontalStack=0;resizeParent=1;resizeParentMax=0;resizeLast=0;collapsible=1;marginBottom=0;swimlaneFillColor=#ffffff;align=center;fontSize=14;" parent="1" vertex="1">
          <mxGeometry x="795" y="2620" width="160" height="52" as="geometry"/>
        </mxCell>
        <mxCell id="xwQmwALtmVTblda4ovLy-65" value="LogInfo" style="swimlane;fontStyle=0;childLayout=stackLayout;horizontal=1;startSize=26;fillColor=#e0e0e0;horizontalStack=0;resizeParent=1;resizeParentMax=0;resizeLast=0;collapsible=1;marginBottom=0;swimlaneFillColor=#ffffff;align=center;fontSize=14;" parent="1" vertex="1">
          <mxGeometry x="1045" y="1511.5" width="160" height="55" as="geometry"/>
        </mxCell>
        <mxCell id="xwQmwALtmVTblda4ovLy-66" value="&lt;font style=&quot;font-size: 24px&quot;&gt;用户权限实体关系&lt;/font&gt;" style="text;html=1;strokeColor=#6c8ebf;fillColor=#dae8fc;align=center;verticalAlign=middle;whiteSpace=wrap;rounded=0;" parent="1" vertex="1">
          <mxGeometry x="1026" y="130" width="198" height="50" as="geometry"/>
        </mxCell>
      </root>
    </mxGraphModel>
  </diagram>
</mxfile>
